<svg width="147" height="84" viewBox="0 0 147 84" fill="none" xmlns="http://www.w3.org/2000/svg">
<g filter="url(#filter0_d)">
<path d="M28.04 15.5342H40.6084V27.2969H16.8145C15.9909 27.2969 15.2926 27.5833 14.7197 28.1562C14.1468 28.6934 13.8604 29.3558 13.8604 30.1436C13.8604 30.9671 14.1468 31.6654 14.7197 32.2383C15.2926 32.8112 15.9909 33.0977 16.8145 33.0977H29.0605C31.0658 33.0977 32.9456 33.4378 34.7002 34.1182C36.4906 34.7985 38.0482 35.7474 39.373 36.9648C40.6979 38.1823 41.7363 39.6325 42.4883 41.3154C43.276 42.9984 43.6699 44.8424 43.6699 46.8477C43.6699 48.8887 43.276 50.8044 42.4883 52.5947C41.7363 54.3851 40.6979 55.9427 39.373 57.2676C38.0482 58.5566 36.4906 59.5951 34.7002 60.3828C32.9456 61.1348 31.0658 61.5107 29.0605 61.5107H28.04V78H18.1572V61.5107H2.20508V49.8555H29.0605C29.8125 49.8555 30.4749 49.569 31.0479 48.9961C31.6208 48.3874 31.9072 47.6712 31.9072 46.8477C31.9072 46.0241 31.6208 45.5049 31.0479 45.29C30.4749 45.0394 29.8125 44.9141 29.0605 44.9141H16.8145C14.7734 44.9141 12.8577 44.5381 11.0674 43.7861C9.31283 42.9984 7.77311 41.9421 6.44824 40.6172C5.15918 39.2565 4.12077 37.681 3.33301 35.8906C2.58105 34.1003 2.20508 32.1846 2.20508 30.1436C2.20508 28.1383 2.58105 26.2585 3.33301 24.5039C4.12077 22.7135 5.15918 21.1559 6.44824 19.8311C7.77311 18.5062 9.31283 17.4678 11.0674 16.7158C12.8577 15.9281 14.7734 15.5342 16.8145 15.5342H18.1572V0.978516H28.04V15.5342ZM100.228 47.2236V31.8086C100.228 29.696 99.8158 27.7087 98.9922 25.8467C98.2044 23.9489 97.1123 22.3018 95.7158 20.9053C94.3193 19.5088 92.6722 18.4167 90.7744 17.6289C88.9124 16.8053 86.9251 16.3936 84.8125 16.3936C82.6999 16.3936 80.6947 16.8053 78.7969 17.6289C76.9349 18.4167 75.3057 19.5088 73.9092 20.9053C72.5127 22.3018 71.4027 23.9489 70.5791 25.8467C69.7913 27.7087 69.3975 29.696 69.3975 31.8086V47.2236H100.228ZM115.643 78H100.228V62.585H69.3975V78H54.0361V31.8086C54.0361 27.5475 54.8418 23.555 56.4531 19.8311C58.0645 16.0713 60.2487 12.7949 63.0059 10.002C65.7988 7.20898 69.0573 5.00684 72.7812 3.39551C76.541 1.78418 80.5514 0.978516 84.8125 0.978516C89.0736 0.978516 93.0661 1.78418 96.79 3.39551C100.55 5.00684 103.826 7.20898 106.619 10.002C109.412 12.7949 111.614 16.0713 113.226 19.8311C114.837 23.555 115.643 27.5475 115.643 31.8086V78ZM144.432 78H129.017V0.978516H144.432V78Z" fill="#FF5C5C" fill-opacity="0.88"/>
</g>
<defs>
<filter id="filter0_d" x="0.205078" y="0.978516" width="146.227" height="83.0215" filterUnits="userSpaceOnUse" color-interpolation-filters="sRGB">
<feFlood flood-opacity="0" result="BackgroundImageFix"/>
<feColorMatrix in="SourceAlpha" type="matrix" values="0 0 0 0 0 0 0 0 0 0 0 0 0 0 0 0 0 0 127 0"/>
<feOffset dy="4"/>
<feGaussianBlur stdDeviation="1"/>
<feColorMatrix type="matrix" values="0 0 0 0 1 0 0 0 0 1 0 0 0 0 1 0 0 0 0.25 0"/>
<feBlend mode="normal" in2="BackgroundImageFix" result="effect1_dropShadow"/>
<feBlend mode="normal" in="SourceGraphic" in2="effect1_dropShadow" result="shape"/>
</filter>
</defs>
</svg>
