<svg width="218" height="60" viewBox="0 0 218 60" fill="none" xmlns="http://www.w3.org/2000/svg">
<path d="M114.896 1.95803C116.129 0.433343 118.346 -0.0446455 119.252 1.11153C120.158 2.26771 122.143 -0.10129 123.849 1.23859C125.555 2.57848 125.879 2.28176 126.23 3.05325C127.159 5.09558 124.94 4.82089 128.116 8.98713C129.93 11.3672 128.515 13.9259 130.84 17.7973C133.165 21.6687 133.364 21.535 133.506 24.3758C133.607 26.3915 135.77 27.1987 135.676 28.7531C135.676 28.7531 136.063 27.2827 135.607 25.7171C135.151 24.1514 135.038 23.1313 135.694 22.1245C136.35 21.1177 134.568 19.955 135.056 17.9978C135.543 16.0406 136.434 15.3805 135.635 13.8147C134.837 12.2489 133.429 9.9395 135.198 8.0595C136.967 6.17949 133.622 4.30697 135.626 2.47349C137.629 0.640017 139.387 3.42534 140.215 1.60591C141.042 -0.213515 143.333 -0.196417 145.147 2.18363C146.962 4.56368 146.384 5.64118 146.373 7.8048C146.363 9.96842 146.214 10.4041 146.692 14.0095C147.171 17.6148 145.371 16.7584 146.84 19.625C148.31 22.4916 145.062 24.4958 146.33 26.6013C147.598 28.7068 146.667 29.1731 146.668 31.7425C146.668 34.3118 147.594 34.9611 147.02 38.7433C146.616 41.4071 145.837 41.1348 146.102 43.5032C146.366 45.8717 147.329 46.6226 146.023 48.1681C144.716 49.7135 144.385 48.2592 142.618 49.7716C141.655 50.5954 139.227 51.0248 138.966 48.7916C138.705 46.5583 137.263 49.3536 135.222 48.5946C133.181 47.8357 134.591 45.074 132.481 44.2469C130.371 43.4197 131.362 41.4325 129.814 38.9192C128.266 36.406 126.9 35.7196 126.641 33.554C126.382 31.3885 125.537 32.5316 125.868 34.9006C126.2 37.2696 126.723 36.6649 125.881 37.9433C125.039 39.2217 126.559 40.6529 126.128 42.2048C125.698 43.7567 125.356 43.5514 126.015 45.5847C126.675 47.6181 124.897 46.5906 125.081 48.4852C125.266 50.3798 123.508 48.8453 122.356 49.8847C121.156 50.9689 119.684 48.1744 119.943 50.34C120.203 52.5057 121.022 55.4868 119.261 55.1356C117.501 54.7843 118.726 51.4466 118.625 50.1612C118.524 48.8757 118.016 49.2721 117.174 50.049C116.483 50.6861 116.825 49.573 116.018 49.6346C115.211 49.6962 113.938 47.3878 114.762 45.4331C115.586 43.4785 115.304 43.0031 114.667 41.8489C114.031 40.6947 113.119 39.4121 114.231 36.8466C115.344 34.2812 114.467 31.7053 114.082 29.8768C113.697 28.0483 116.211 26.3091 114.78 25.6899C113.349 25.0706 113.037 23.4456 114.145 22.0339C115.253 20.6223 113.123 19.0513 113.921 16.0822C114.718 13.1131 114.824 12.0321 114.175 7.83516C113.525 3.6382 114.243 2.76456 114.896 1.95803Z" fill="#597A62" fill-opacity="0.7"/>
<path d="M163.236 32.6018C163.346 32.3716 163.438 32.1317 163.494 31.8784C164.071 29.2579 166.44 30.3458 168.033 30.8401C169.465 31.2846 169.875 29.277 172.9 30.4923C173.477 30.7241 174.102 30.6925 174.648 30.4233C175.405 30.0502 176.23 30.3607 176.39 28.0061C176.563 25.4707 175.251 25.5976 176.167 23.495C177.084 21.3925 175.734 20.2187 174.615 19.9195C174.29 19.8325 173.94 19.8733 173.581 19.9545C172.431 20.2151 171.221 19.8496 170.333 18.9716C169.395 18.0447 168.062 18.0664 166.297 18.9125C163.301 20.1857 160.993 18.1494 162.583 13.939C163.164 12.4021 167.917 16.2279 169.813 13.9059C173.471 9.42341 174.348 15.0443 176.112 13.4572C177.545 12.1676 178.469 12.0657 178.837 10.8712C178.989 10.3777 178.989 9.83837 178.86 9.32674C178.015 5.98566 179.38 5.02307 178.025 3.0564C176.315 0.367985 173.443 1.85549 171.789 1.48489C171.153 1.34243 170.503 1.36519 169.895 1.57336C166.687 2.67049 165.056 -0.410922 162.758 1.07225C160.175 2.70379 160.559 0.526974 159.212 0.365946C157.455 0.155766 157.344 1.37602 156.737 1.37153C155.39 1.36157 155.608 -0.402022 153.871 0.874655C152.135 2.15141 150.511 1.14802 149.873 3.27552C149.234 5.40303 152.101 6.18038 150.837 10.4198C149.574 14.6592 151.924 14.5285 152.022 16.3339C152.12 18.1393 149.169 19.2645 151.078 21.6214C152.987 23.9782 150.229 25.768 151.545 27.7821C152.862 29.7961 153.211 30.6577 152.572 32.7623C151.933 34.8668 150.746 35.149 151.841 38.9532C152.586 41.5403 151.297 39.822 151.007 42.0019C150.717 44.1818 152.266 44.9933 151.829 46.8812C151.252 49.2634 153.41 49.3894 154.695 49.3615C157.803 49.6027 155.488 51.3313 157.066 52.3612C158.377 53.2165 158.739 51.8645 158.212 49.7512C157.964 48.7571 160.538 48.3983 162.026 48.6157C164.314 48.4144 164.123 46.3037 163.443 43.5347C162.97 41.6058 162.492 40.691 163.498 37.9345C164.426 35.3935 162.732 33.66 163.236 32.6018Z" fill="#597A62" fill-opacity="0.7"/>
<path d="M205.599 15.2772C202.866 15.1711 207.066 19.7724 205.77 22.838C204.589 25.6285 204.971 25.7374 205.621 27.413C205.878 28.0752 205.9 30.3527 205.784 31.046C205.15 34.8651 207.042 34.7749 206.492 37.4434C204.681 43.8677 209.474 45.8451 206.383 48.6286C204.543 50.2854 205.326 51.8893 203.778 51.8776C201.894 51.8634 203.315 49.6224 199.87 49.088C198.334 48.8499 195.04 51.2059 194.11 47.5194C193.659 45.7322 194.859 44.186 193.964 42.8241C192.07 39.9393 194.817 38.3462 194.007 35.9694C192.84 32.5467 194.785 32.3434 194.734 30.3818C194.705 29.2955 194.415 28.8091 194.043 28.1677C192.922 26.2371 192.671 23.885 193.37 21.8005C193.918 20.163 194.348 19.2323 193.986 17.7677C193.928 17.5325 193.822 17.3144 193.696 17.1104C193.07 16.0996 194.456 14.2817 190.647 15.7511C188.162 16.7099 186.764 13.906 184.566 14.7611C182.369 15.6162 181.219 12.8474 182.698 10.2436C183.772 8.35124 179.172 5.20743 182.014 2.17582C184.042 0.0119771 187.231 3.59515 189.271 1.86722C191.311 0.139282 195.669 2.57952 197.483 2.00161C199.867 0.566805 200.701 1.35283 203.345 2.33624C206.334 3.44827 205.593 0.0405453 209.12 1.94385C209.666 2.2385 210.75 2.5372 213.155 1.90156C215.561 1.26592 216.157 3.17864 216.706 6.43173C217.025 8.32268 215.064 7.94475 215.664 10.2736C216.263 12.6025 216.377 14.3466 215.114 14.9182C213.505 15.646 213.071 15.8132 211.013 15.0327C207.887 13.847 210.074 15.4508 205.599 15.2772Z" fill="#597A62" fill-opacity="0.7"/>
<path d="M36.4845 44.1594C36.0126 42.5373 35.3859 43.341 36.0421 41.7263C36.6909 40.1117 36.7425 39.9348 35.3933 36.6023C34.0367 33.2772 37.3913 31.8616 35.3933 28.1531C33.3953 24.452 33.8229 23.5599 34.538 21.8568C35.2532 20.1537 34.6781 18.6717 33.5427 17.4847C32.4073 16.2977 32.8718 14.108 32.1861 11.6381C31.6184 9.5664 30.4756 11.0483 29.4729 7.2661C28.7725 4.61191 27.0252 4.19166 25.6096 4.0442C25.0493 3.98522 24.5258 3.71243 24.1645 3.26269C22.1075 0.741211 20.6993 3.24057 18.3474 2.59914C13.9975 1.41213 13.9975 5.03952 11.5718 6.37399C9.88346 7.30296 8.29094 8.9692 8.64484 11.6308C8.99873 14.2997 9.14619 13.4076 6.79427 15.7005C4.44235 17.9935 5.22387 21.3259 5.22387 21.3259C1.65544 25.7717 5.43768 23.5451 2.87195 27.7697C1.27943 30.3871 4.58244 31.4708 2.51806 33.7711C1.18359 35.2531 1.24257 37.7451 1.33104 38.7478C1.35316 38.9689 1.40477 39.1828 1.47112 39.3966C2.01671 41.166 -0.416309 45.2653 0.0629214 47.7425C0.56427 50.3377 2.09781 47.5361 2.38535 51.2372C2.67289 54.9383 0.387322 59.4578 3.02678 59.0892C5.66623 58.7205 3.52813 54.0536 4.09583 52.2768C4.66353 50.4999 5.59251 52.4979 7.08918 50.8686C8.58586 49.2392 9.01347 52.1293 10.5101 52.4242C12.0068 52.7191 10.864 49.6815 12.3607 51.0897C13.8574 52.4979 14.2113 49.6815 14.2113 49.6815C14.8527 48.4945 13.7099 48.1259 15.0518 46.8357C16.3936 45.5454 15.2066 43.2451 15.0665 41.3208C14.9264 39.3966 15.7817 38.1358 16.777 38.7256C17.7723 39.3155 17.8018 40.1854 19.8441 39.3892C21.1933 38.8657 23.6263 38.7256 22.9554 39.7799C22.2845 40.8342 23.7664 41.7558 23.442 43.3631C23.1176 44.9704 22.4835 45.6781 23.5526 48.8632C24.6216 52.0482 23.0291 53.685 24.5479 53.6039C25.9045 53.5301 24.3341 50.7137 25.9045 50.64C26.9146 50.5958 28.2564 51.6796 29.7531 51.1561C31.2498 50.64 29.7531 53.449 31.1687 53.6039C32.5843 53.7513 31.4636 49.2318 32.1787 51.3036C32.8939 53.3753 30.7558 56.5603 32.9603 56.7078C35.1721 56.8552 33.3142 52.4095 33.528 51.1561C33.7418 49.8954 35.5923 50.4188 36.4771 49.3793C37.3618 48.3692 36.9563 45.7814 36.4845 44.1594ZM21.4292 29.001C19.3059 28.9567 18.8488 27.7845 17.9861 28.824C17.1309 29.8562 16.3273 30.6967 15.5163 29.9594C13.9975 28.5807 16.777 26.0814 16.5632 24.8206C16.3494 23.5599 17.5585 24.0833 17.4922 22.454C17.4037 20.3822 19.0626 20.2348 18.9151 19.1215C18.775 18.0082 19.4312 17.8829 20.1243 18.1557C21.9748 18.8929 21.0532 20.972 22.5499 23.1175C24.0466 25.263 22.4688 25.9708 23.2577 27.5264C24.0466 29.0821 23.0218 29.0378 21.4292 29.001Z" fill="#597A62" fill-opacity="0.7"/>
<path d="M51.6438 15.3236C51.6438 15.3236 49.8351 16.8086 50.7768 18.9585C51.7185 21.1085 50.7843 21.5887 50.6796 23.1697C50.3433 28.0902 52.4435 27.8685 52.01 30.2401C51.3672 33.7642 48.1684 33.1731 49.0429 36.4756C49.4763 38.1083 51.569 38.0345 50.7021 39.3717C50.2387 40.0809 48.2432 41.3 45.2088 40.1844C42.1744 39.0688 39.8574 40.0366 40.0069 42.3343C40.1489 44.632 37.6227 43.967 38.131 46.8631C38.6392 49.7593 40.3731 49.3086 41.4569 50.1287C42.5406 50.9413 40.2984 54.5836 42.2491 54.8792C44.1998 55.1747 42.1743 51.8353 43.4748 50.801C44.7753 49.7666 44.85 53.6971 46.4419 51.9904C48.0339 50.2838 49.6931 51.8427 51.285 50.7271C52.877 49.6115 53.8859 51.7688 56.0534 50.7271C58.2208 49.6854 57.2791 53.9187 59.738 52.2121C62.1969 50.5054 61.9054 51.3994 62.7724 52.3598C63.6394 53.3203 61.9054 57.1104 63.7814 57.1104C66.33 57.1104 63.2059 51.9166 65.2238 50.9487C67.2418 49.9809 66.6663 52.8031 69.4914 51.4659C72.3091 50.1287 72.9817 51.6875 73.9907 48.2004C74.9997 44.7132 72.0774 45.2673 73.4152 41.9649C74.1103 40.2435 70.8666 39.3643 69.058 40.9232C67.2493 42.482 68.049 39.0688 65.6573 39.2165C63.2732 39.3643 61.8083 40.6646 62.1147 38.4777C62.4211 36.2909 63.4152 36.9927 62.1147 34.5473C60.8142 32.1019 62.7649 32.3974 62.1894 30.1662C61.614 27.9424 64.7156 28.3857 62.4062 24.7508C60.0968 21.1159 63.7216 19.1432 62.4436 17.444C60.4929 14.8434 63.7066 15.331 65.1566 15.4788C66.599 15.6265 65.1566 12.8782 68.191 13.6983C71.2254 14.511 70.4929 15.8186 72.3614 15.0059C72.3614 15.0059 71.061 19.9412 72.8098 19.8821C74.2299 19.8303 73.9309 17.8134 73.7815 14.4888C73.6619 11.8513 75.8517 12.6566 74.626 9.1694C73.4003 5.68225 74.626 4.56666 72.3166 3.22942C70.0071 1.89219 69.6409 5.00994 66.4645 3.96823C63.2881 2.92651 63.901 1.06473 61.3897 2.88957C58.8785 4.71442 60.6797 2.35025 58.1535 2.12122C55.6274 1.89219 55.7694 5.37934 52.3015 3.59882C48.8336 1.81831 46.9502 1.74443 45.2162 3.96823C45.2162 3.96823 42.9068 2.18771 41.1654 4.48539C39.424 6.78307 37.6377 6.56882 38.0637 8.75567C38.4897 10.9425 41.0234 11.009 41.0234 12.6492C41.0234 15.0946 42.6153 15.4714 44.424 14.7252C46.2327 13.9864 46.4494 16.8751 46.0832 18.6556C45.7244 20.4362 47.5556 21.0494 47.3089 18.5818C47.0473 15.9959 47.0174 14.873 47.8171 14.873C48.8261 14.873 47.4136 17.7912 48.9756 17.9168C50.5302 18.0424 48.2282 12.9299 51.6438 15.3236Z" fill="#597A62" fill-opacity="0.7"/>
<path d="M103.163 28.2435C103.478 27.3655 104.597 26.6764 103.586 25.9503C102.615 25.2538 103.341 24.3202 101.522 24.624C99.714 24.9241 99.225 24.1535 97.1909 24.7611C97.1984 24.6796 97.2132 24.5981 97.228 24.5092C97.4762 23.1384 97.0427 22.868 97.265 21.7381C97.4873 20.6082 97.3391 19.0448 96.9686 18.615C95.683 17.1258 95.0791 18.8558 93.5231 18.4965C91.967 18.1371 92.1893 19.4708 91.5409 20.234C90.6851 21.238 92.5116 23.0125 91.7632 24.1387C91.6595 24.2906 91.6187 24.4536 91.615 24.624C91.4483 24.6314 91.289 24.6722 91.1408 24.7722C90.0145 25.5205 88.2398 23.6941 87.2358 24.5499C86.4763 25.1982 85.1425 24.976 85.4982 26.5319C85.8576 28.0879 84.1236 28.6917 85.6167 29.9773C86.0465 30.3477 87.6063 30.4959 88.74 30.2736C89.8737 30.0514 90.1405 30.4848 91.5113 30.2366C91.5928 30.2218 91.6743 30.2107 91.7484 30.2032C91.1482 32.2297 91.9151 32.7187 91.615 34.5229C91.3112 36.3419 92.2449 35.6158 92.9414 36.5864C93.6676 37.5978 94.3567 36.4752 95.2347 36.1641C96.1128 35.8492 96.3647 37.0458 97.3021 35.9492C98.2394 34.8563 97.1168 33.2559 97.3577 31.8703C97.4688 31.2405 97.4688 30.8034 97.4281 30.4403C97.7948 30.4774 98.232 30.4811 98.8693 30.37C100.255 30.1291 101.855 31.2517 102.948 30.3144C104.041 29.3771 102.852 29.1215 103.163 28.2435Z" fill="#597A62" fill-opacity="0.7"/>
</svg>
