<svg width="160" height="146" viewBox="0 0 160 146" fill="none" xmlns="http://www.w3.org/2000/svg">
<path d="M53.5031 76.5972L55.1522 72.9529L54.9928 72.8808L54.8277 72.8229L53.5031 76.5972ZM106.261 100.472L108.285 97.0215L108.103 96.9147L107.91 96.8277L106.261 100.472ZM143.455 125.563C145.592 125.005 146.873 122.821 146.316 120.683L137.235 85.8471C136.678 83.7095 134.493 82.4283 132.355 82.9855C130.218 83.5428 128.937 85.7275 129.494 87.8652L137.566 118.83L106.601 126.902C104.463 127.46 103.182 129.644 103.739 131.782C104.296 133.92 106.481 135.201 108.619 134.644L143.455 125.563ZM39.0837 71.7332L38.5077 75.6915L39.0837 71.7332ZM40.9553 72.1933L39.6306 75.9675L40.9553 72.1933ZM51.8539 80.2414L104.612 104.116L107.91 96.8277L55.1522 72.9529L51.8539 80.2414ZM104.238 103.922L140.422 125.142L144.469 118.242L108.285 97.0215L104.238 103.922ZM11.2825 71.7297L38.5077 75.6915L39.6597 67.7749L12.4346 63.8131L11.2825 71.7297ZM39.6306 75.9675L52.1784 80.3715L54.8277 72.8229L42.28 68.419L39.6306 75.9675ZM38.5077 75.6915C38.89 75.7472 39.2661 75.8396 39.6306 75.9675L42.28 68.419C41.4293 68.1204 40.5518 67.9047 39.6597 67.7749L38.5077 75.6915Z" fill="#D5FFCA"/>
<path d="M53.5031 76.5972L55.1522 72.9529L54.9928 72.8808L54.8277 72.8229L53.5031 76.5972ZM106.261 100.472L108.285 97.0215L108.103 96.9147L107.91 96.8277L106.261 100.472ZM143.455 125.563C145.592 125.005 146.873 122.821 146.316 120.683L137.235 85.8471C136.678 83.7095 134.493 82.4283 132.355 82.9855C130.218 83.5428 128.937 85.7275 129.494 87.8652L137.566 118.83L106.601 126.902C104.463 127.46 103.182 129.644 103.739 131.782C104.296 133.92 106.481 135.201 108.619 134.644L143.455 125.563ZM39.0837 71.7332L38.5077 75.6915L39.0837 71.7332ZM40.9553 72.1933L39.6306 75.9675L40.9553 72.1933ZM51.8539 80.2414L104.612 104.116L107.91 96.8277L55.1522 72.9529L51.8539 80.2414ZM104.238 103.922L140.422 125.142L144.469 118.242L108.285 97.0215L104.238 103.922ZM11.2825 71.7297L38.5077 75.6915L39.6597 67.7749L12.4346 63.8131L11.2825 71.7297ZM39.6306 75.9675L52.1784 80.3715L54.8277 72.8229L42.28 68.419L39.6306 75.9675ZM38.5077 75.6915C38.89 75.7472 39.2661 75.8396 39.6306 75.9675L42.28 68.419C41.4293 68.1204 40.5518 67.9047 39.6597 67.7749L38.5077 75.6915Z" fill="#D5FFCA"/>
<path d="M53.5031 76.5972L55.1522 72.9529L54.9928 72.8808L54.8277 72.8229L53.5031 76.5972ZM106.261 100.472L108.285 97.0215L108.103 96.9147L107.91 96.8277L106.261 100.472ZM143.455 125.563C145.592 125.005 146.873 122.821 146.316 120.683L137.235 85.8471C136.678 83.7095 134.493 82.4283 132.355 82.9855C130.218 83.5428 128.937 85.7275 129.494 87.8652L137.566 118.83L106.601 126.902C104.463 127.46 103.182 129.644 103.739 131.782C104.296 133.92 106.481 135.201 108.619 134.644L143.455 125.563ZM39.0837 71.7332L38.5077 75.6915L39.0837 71.7332ZM40.9553 72.1933L39.6306 75.9675L40.9553 72.1933ZM51.8539 80.2414L104.612 104.116L107.91 96.8277L55.1522 72.9529L51.8539 80.2414ZM104.238 103.922L140.422 125.142L144.469 118.242L108.285 97.0215L104.238 103.922ZM11.2825 71.7297L38.5077 75.6915L39.6597 67.7749L12.4346 63.8131L11.2825 71.7297ZM39.6306 75.9675L52.1784 80.3715L54.8277 72.8229L42.28 68.419L39.6306 75.9675ZM38.5077 75.6915C38.89 75.7472 39.2661 75.8396 39.6306 75.9675L42.28 68.419C41.4293 68.1204 40.5518 67.9047 39.6597 67.7749L38.5077 75.6915Z" fill="#D5FFCA"/>
<path d="M49.7966 85.2181L47.5857 81.8846L47.4465 81.977L47.3155 82.0806L49.7966 85.2181ZM101.768 50.7486L99.9044 47.2094L99.7257 47.3035L99.5574 47.4151L101.768 50.7486ZM145.498 30.9155C146.152 28.8054 144.972 26.5645 142.862 25.9103L108.477 15.2487C106.367 14.5945 104.126 15.7746 103.472 17.8847C102.817 19.9947 103.997 22.2356 106.107 22.8898L136.672 32.3668L127.195 62.9313C126.541 65.0413 127.721 67.2822 129.831 67.9364C131.941 68.5907 134.182 67.4105 134.836 65.3005L145.498 30.9155ZM37.1313 95.4499L34.117 92.8204L34.117 92.8204L37.1313 95.4499ZM38.4642 94.1797L35.9831 91.0422L38.4642 94.1797ZM52.0075 88.5516L103.979 54.082L99.5574 47.4151L47.5857 81.8846L52.0075 88.5516ZM103.632 54.2878L143.541 33.27L139.813 26.1916L99.9044 47.2094L103.632 54.2878ZM20.6043 120.481L40.1456 98.0794L34.117 92.8204L14.5757 115.222L20.6043 120.481ZM40.9453 97.3173L52.2777 88.3556L47.3155 82.0806L35.9831 91.0422L40.9453 97.3173ZM40.1456 98.0794C40.3882 97.8013 40.6559 97.5462 40.9453 97.3173L35.9831 91.0422C35.3077 91.5763 34.683 92.1716 34.117 92.8204L40.1456 98.0794Z" fill="#D5FFCA"/>
<path d="M49.7966 85.2181L47.5857 81.8846L47.4465 81.977L47.3155 82.0806L49.7966 85.2181ZM101.768 50.7486L99.9044 47.2094L99.7257 47.3035L99.5574 47.4151L101.768 50.7486ZM145.498 30.9155C146.152 28.8054 144.972 26.5645 142.862 25.9103L108.477 15.2487C106.367 14.5945 104.126 15.7746 103.472 17.8847C102.817 19.9947 103.997 22.2356 106.107 22.8898L136.672 32.3668L127.195 62.9313C126.541 65.0413 127.721 67.2822 129.831 67.9364C131.941 68.5907 134.182 67.4105 134.836 65.3005L145.498 30.9155ZM37.1313 95.4499L34.117 92.8204L34.117 92.8204L37.1313 95.4499ZM38.4642 94.1797L35.9831 91.0422L38.4642 94.1797ZM52.0075 88.5516L103.979 54.082L99.5574 47.4151L47.5857 81.8846L52.0075 88.5516ZM103.632 54.2878L143.541 33.27L139.813 26.1916L99.9044 47.2094L103.632 54.2878ZM20.6043 120.481L40.1456 98.0794L34.117 92.8204L14.5757 115.222L20.6043 120.481ZM40.9453 97.3173L52.2777 88.3556L47.3155 82.0806L35.9831 91.0422L40.9453 97.3173ZM40.1456 98.0794C40.3882 97.8013 40.6559 97.5462 40.9453 97.3173L35.9831 91.0422C35.3077 91.5763 34.683 92.1716 34.117 92.8204L40.1456 98.0794Z" fill="#D5FFCA"/>
<path d="M49.7966 85.2181L47.5857 81.8846L47.4465 81.977L47.3155 82.0806L49.7966 85.2181ZM101.768 50.7486L99.9044 47.2094L99.7257 47.3035L99.5574 47.4151L101.768 50.7486ZM145.498 30.9155C146.152 28.8054 144.972 26.5645 142.862 25.9103L108.477 15.2487C106.367 14.5945 104.126 15.7746 103.472 17.8847C102.817 19.9947 103.997 22.2356 106.107 22.8898L136.672 32.3668L127.195 62.9313C126.541 65.0413 127.721 67.2822 129.831 67.9364C131.941 68.5907 134.182 67.4105 134.836 65.3005L145.498 30.9155ZM37.1313 95.4499L34.117 92.8204L34.117 92.8204L37.1313 95.4499ZM38.4642 94.1797L35.9831 91.0422L38.4642 94.1797ZM52.0075 88.5516L103.979 54.082L99.5574 47.4151L47.5857 81.8846L52.0075 88.5516ZM103.632 54.2878L143.541 33.27L139.813 26.1916L99.9044 47.2094L103.632 54.2878ZM20.6043 120.481L40.1456 98.0794L34.117 92.8204L14.5757 115.222L20.6043 120.481ZM40.9453 97.3173L52.2777 88.3556L47.3155 82.0806L35.9831 91.0422L40.9453 97.3173ZM40.1456 98.0794C40.3882 97.8013 40.6559 97.5462 40.9453 97.3173L35.9831 91.0422C35.3077 91.5763 34.683 92.1716 34.117 92.8204L40.1456 98.0794Z" fill="#D5FFCA"/>
</svg>
