<svg width="163" height="75" viewBox="0 0 163 75" fill="none" xmlns="http://www.w3.org/2000/svg">
<path d="M48.771 30.051L48.7663 26.051L48.5993 26.0512L48.4328 26.0653L48.771 30.051ZM111.134 29.9787L111.533 25.9986L111.332 25.9785L111.13 25.9787L111.134 29.9787ZM158.548 37.5656C160.258 36.1668 160.51 33.6467 159.111 31.9368L136.316 4.07295C134.918 2.36309 132.398 2.11092 130.688 3.50973C128.978 4.90854 128.726 7.42861 130.124 9.13848L150.387 33.9064L125.619 54.1684C123.909 55.5672 123.657 58.0873 125.055 59.7972C126.454 61.5071 128.974 61.7592 130.684 60.3604L158.548 37.5656ZM32.5626 31.5963L31.4994 27.7401L31.4994 27.7401L32.5626 31.5963ZM34.375 31.2724L34.0369 27.2867L34.375 31.2724ZM48.7756 34.051L111.139 33.9787L111.13 25.9787L48.7663 26.051L48.7756 34.051ZM110.736 33.9588L155.617 38.4497L156.414 30.4895L111.533 25.9986L110.736 33.9588ZM4.96821 43.3533L33.6257 35.4524L31.4994 27.7401L2.84194 35.641L4.96821 43.3533ZM34.7132 35.2581L49.1091 34.0367L48.4328 26.0653L34.0369 27.2867L34.7132 35.2581ZM33.6257 35.4524C33.9815 35.3543 34.3455 35.2893 34.7132 35.2581L34.0369 27.2867C33.1789 27.3595 32.3295 27.5113 31.4994 27.7401L33.6257 35.4524Z" fill="#D5FFCA"/>
<path d="M48.771 30.051L48.7663 26.051L48.5993 26.0512L48.4328 26.0653L48.771 30.051ZM111.134 29.9787L111.533 25.9986L111.332 25.9785L111.13 25.9787L111.134 29.9787ZM158.548 37.5656C160.258 36.1668 160.51 33.6467 159.111 31.9368L136.316 4.07295C134.918 2.36309 132.398 2.11092 130.688 3.50973C128.978 4.90854 128.726 7.42861 130.124 9.13848L150.387 33.9064L125.619 54.1684C123.909 55.5672 123.657 58.0873 125.055 59.7972C126.454 61.5071 128.974 61.7592 130.684 60.3604L158.548 37.5656ZM32.5626 31.5963L31.4994 27.7401L31.4994 27.7401L32.5626 31.5963ZM34.375 31.2724L34.0369 27.2867L34.375 31.2724ZM48.7756 34.051L111.139 33.9787L111.13 25.9787L48.7663 26.051L48.7756 34.051ZM110.736 33.9588L155.617 38.4497L156.414 30.4895L111.533 25.9986L110.736 33.9588ZM4.96821 43.3533L33.6257 35.4524L31.4994 27.7401L2.84194 35.641L4.96821 43.3533ZM34.7132 35.2581L49.1091 34.0367L48.4328 26.0653L34.0369 27.2867L34.7132 35.2581ZM33.6257 35.4524C33.9815 35.3543 34.3455 35.2893 34.7132 35.2581L34.0369 27.2867C33.1789 27.3595 32.3295 27.5113 31.4994 27.7401L33.6257 35.4524Z" fill="#D5FFCA"/>
<path d="M48.771 30.051L48.7663 26.051L48.5993 26.0512L48.4328 26.0653L48.771 30.051ZM111.134 29.9787L111.533 25.9986L111.332 25.9785L111.13 25.9787L111.134 29.9787ZM158.548 37.5656C160.258 36.1668 160.51 33.6467 159.111 31.9368L136.316 4.07295C134.918 2.36309 132.398 2.11092 130.688 3.50973C128.978 4.90854 128.726 7.42861 130.124 9.13848L150.387 33.9064L125.619 54.1684C123.909 55.5672 123.657 58.0873 125.055 59.7972C126.454 61.5071 128.974 61.7592 130.684 60.3604L158.548 37.5656ZM32.5626 31.5963L31.4994 27.7401L31.4994 27.7401L32.5626 31.5963ZM34.375 31.2724L34.0369 27.2867L34.375 31.2724ZM48.7756 34.051L111.139 33.9787L111.13 25.9787L48.7663 26.051L48.7756 34.051ZM110.736 33.9588L155.617 38.4497L156.414 30.4895L111.533 25.9986L110.736 33.9588ZM4.96821 43.3533L33.6257 35.4524L31.4994 27.7401L2.84194 35.641L4.96821 43.3533ZM34.7132 35.2581L49.1091 34.0367L48.4328 26.0653L34.0369 27.2867L34.7132 35.2581ZM33.6257 35.4524C33.9815 35.3543 34.3455 35.2893 34.7132 35.2581L34.0369 27.2867C33.1789 27.3595 32.3295 27.5113 31.4994 27.7401L33.6257 35.4524Z" fill="#D5FFCA"/>
</svg>
