<svg width="29" height="30" viewBox="0 0 29 30" fill="none" xmlns="http://www.w3.org/2000/svg">
<path d="M8.18087 12.6063L14.0069 6.78045L19.8359 12.6093L23.2259 9.2193L14.0069 0L4.79102 9.2163L8.18087 12.6063Z" fill="#F3BA2F"/>
<path d="M0 12.6025H4.7943V17.3965H0V12.6025Z" fill="#F3BA2F"/>
<path d="M8.18108 17.3937L14.0071 23.2196L19.8359 17.3909L23.2277 20.7791L23.2261 20.7809L14.0071 30L4.79093 20.784L4.78613 20.7792L8.18108 17.3937Z" fill="#F3BA2F"/>
<path d="M23.22 12.6041H28.0143V17.3981H23.22V12.6041Z" fill="#F3BA2F"/>
<path d="M17.4455 14.9982H17.447L14.007 11.5583L11.4648 14.1005H11.4647L11.1726 14.3927L10.5702 14.9952L10.5654 14.9999L10.5702 15.0048L14.007 18.4418L17.447 15.0018L17.4486 14.9999L17.4455 14.9982Z" fill="#F3BA2F"/>
</svg>
