<svg width="38" height="38" viewBox="0 0 38 38" fill="none" xmlns="http://www.w3.org/2000/svg">
<path fill-rule="evenodd" clip-rule="evenodd" d="M0 19C0 8.50662 8.50662 0 19 0C29.4934 0 38 8.50662 38 19C38 29.4934 29.4934 38 19 38C8.50662 38 0 29.4934 0 19ZM26.8335 8.23333H11.7999C10.5322 8.23333 9.5 9.253 9.5 10.5165V25.5012C9.5 26.7647 10.5322 27.7843 11.7999 27.7843H24.5223L23.9277 25.7339L25.3637 27.0528L26.7212 28.2942L29.1333 30.4V10.5165C29.1333 9.253 28.1012 8.23333 26.8335 8.23333Z" fill="white"/>
</svg>
