<svg width="38" height="38" viewBox="0 0 38 38" fill="none" xmlns="http://www.w3.org/2000/svg">
<path fill-rule="evenodd" clip-rule="evenodd" d="M38 19C38 29.4934 29.4934 38 19 38C8.50662 38 0 29.4934 0 19C0 8.50662 8.50662 0 19 0C29.4934 0 38 8.50662 38 19ZM9.01803 12.0603C9.25023 12.2745 9.36882 12.589 9.33739 12.9073V24.3667C9.40627 24.78 9.27897 25.2023 8.99436 25.5042L6.33333 28.8076V29.2433H13.8789V28.8076L11.2178 25.5042C10.9313 25.2028 10.796 24.7834 10.8512 24.3667V14.4562L17.4743 29.2433H18.2431L23.9318 14.4562V26.2422C23.9318 26.5569 23.9318 26.6174 23.7308 26.8231L21.6847 28.856V29.2917H31.6193V28.856L29.6443 26.8715C29.4699 26.7355 29.3834 26.512 29.4195 26.2907V11.7093C29.3834 11.488 29.4699 11.2645 29.6443 11.1285L31.6667 9.14399V8.70833H24.6651L19.6741 21.4504L13.9972 8.70833H6.65266V9.14399L9.01803 12.0603Z" fill="white"/>
</svg>
